<svg width="20" height="20" viewBox="0 0 20 20" fill="none" xmlns="http://www.w3.org/2000/svg">
<path d="M15.3438 11.8594C15.4062 11.9219 15.5312 12.0625 15.7188 12.2812C15.9375 12.4688 16.0781 12.5938 16.1406 12.6562C16.2031 12.7188 16.3281 12.8594 16.5156 13.0781C16.7344 13.2969 16.8594 13.4531 16.8906 13.5469C16.9531 13.6094 17.0781 13.75 17.2656 13.9688C17.4531 14.1875 17.5469 14.3438 17.5469 14.4375C17.5781 14.5312 17.6562 14.7031 17.7812 14.9531C17.9375 15.2031 17.9844 15.3906 17.9219 15.5156C17.8906 15.6094 17.9062 15.7969 17.9688 16.0781C18.0625 16.3281 18.0625 16.5156 17.9688 16.6406C17.625 17.9531 16.8438 18.7344 15.625 18.9844C15.4062 19.0156 14.6406 18.9531 13.3281 18.7969C12.0469 18.6406 10.9688 18.5625 10.0938 18.5625H9.90625C9.03125 18.5625 7.9375 18.6406 6.625 18.7969C5.34375 18.9531 4.59375 19.0156 4.375 18.9844C3.15625 18.7344 2.375 17.9531 2.03125 16.6406C1.9375 16.0156 2.04688 15.375 2.35938 14.7188C2.67188 14.0625 2.95312 13.5938 3.20312 13.3125C3.48438 13.0312 3.96875 12.5469 4.65625 11.8594C4.96875 11.5156 5.375 11.0312 5.875 10.4062C6.40625 9.78125 6.82812 9.29688 7.14062 8.95312C7.70312 8.26562 8.28125 7.82812 8.875 7.64062C9 7.57812 9.10938 7.54688 9.20312 7.54688C9.39062 7.51562 9.65625 7.5 10 7.5C10.375 7.5 10.6406 7.51562 10.7969 7.54688C10.8906 7.54688 11 7.57812 11.125 7.64062C11.7188 7.82812 12.2969 8.26562 12.8594 8.95312C13.1406 9.29688 13.5469 9.78125 14.0781 10.4062C14.6094 11.0312 15.0312 11.5156 15.3438 11.8594ZM15.7188 8.29688C15.25 7.79688 15.0156 7.20312 15.0156 6.51562C15.0156 5.82812 15.25 5.23438 15.7188 4.73438C16.2188 4.23437 16.8125 3.98438 17.5 3.98438C18.1875 3.98438 18.7656 4.23437 19.2344 4.73438C19.7344 5.23438 19.9844 5.82812 19.9844 6.51562C19.9844 7.20312 19.7344 7.79688 19.2344 8.29688C18.7656 8.76562 18.1875 9 17.5 9C16.8125 9 16.2188 8.76562 15.7188 8.29688ZM11.2188 4.26562C10.75 3.76562 10.5156 3.17188 10.5156 2.48438C10.5156 1.79687 10.75 1.21875 11.2188 0.75C11.7188 0.25 12.3125 0 13 0C13.6875 0 14.2656 0.25 14.7344 0.75C15.2344 1.21875 15.4844 1.79687 15.4844 2.48438C15.4844 3.17188 15.2344 3.76562 14.7344 4.26562C14.2656 4.76563 13.6875 5.01562 13 5.01562C12.3125 5.01562 11.7188 4.76563 11.2188 4.26562ZM5.21875 4.26562C4.75 3.76562 4.51562 3.17188 4.51562 2.48438C4.51562 1.79687 4.75 1.21875 5.21875 0.75C5.71875 0.25 6.3125 0 7 0C7.6875 0 8.26562 0.25 8.73438 0.75C9.23438 1.21875 9.48438 1.79687 9.48438 2.48438C9.48438 3.17188 9.23438 3.76562 8.73438 4.26562C8.26562 4.76563 7.6875 5.01562 7 5.01562C6.3125 5.01562 5.71875 4.76563 5.21875 4.26562ZM0.71875 8.29688C0.25 7.79688 0.015625 7.20312 0.015625 6.51562C0.015625 5.82812 0.25 5.23438 0.71875 4.73438C1.21875 4.23437 1.8125 3.98438 2.5 3.98438C3.1875 3.98438 3.76562 4.23437 4.23438 4.73438C4.73438 5.23438 4.98438 5.82812 4.98438 6.51562C4.98438 7.20312 4.73438 7.79688 4.23438 8.29688C3.76562 8.76562 3.1875 9 2.5 9C1.8125 9 1.21875 8.76562 0.71875 8.29688Z" fill="#7C6254"/>
</svg>
